<svg version="1.1" xmlns="http://www.w3.org/2000/svg" xmlns:xlink="http://www.w3.org/1999/xlink" viewBox="10 0 620 480">
 <defs>
  <linearGradient id="a">
   <stop stop-color="#fff" offset="0"/>
   <stop stop-color="#fff" stop-opacity="0" offset="1"/>
  </linearGradient>
  <linearGradient id="j" x1="34.118" x2="34.118" y1="-25.769" y2="79.447" gradientTransform="scale(1.5794 .63314)" gradientUnits="userSpaceOnUse" xlink:href="#a"/>
  <linearGradient id="i" x1="216.7" x2="216.7" y1="-53.053" y2="687.92" gradientTransform="matrix(1.5831 0 0 .63166 0 -2.5816)" gradientUnits="userSpaceOnUse" xlink:href="#a"/>
  <linearGradient id="b" x1="216.7" x2="216.7" y1="-53.053" y2="687.92" gradientTransform="scale(1.5831 .63166)" gradientUnits="userSpaceOnUse" xlink:href="#a"/>
  <linearGradient id="h" x1="216.7" x2="216.7" y1="-53.053" y2="687.92" gradientTransform="matrix(1.5831 0 0 .63166 2.5816 -5.1631)" gradientUnits="userSpaceOnUse" xlink:href="#a"/>
  <linearGradient id="g" x1="216.7" x2="216.7" y1="-53.053" y2="687.92" gradientTransform="matrix(1.5831 0 0 .63166 5.1631 1.2908)" gradientUnits="userSpaceOnUse" xlink:href="#a"/>
  <linearGradient id="f" x1="216.7" x2="216.7" y1="-53.053" y2="687.92" gradientTransform="matrix(1.451 0 0 .47172 46.24 62.301)" gradientUnits="userSpaceOnUse" xlink:href="#a"/>
  <linearGradient id="e" x1="4.9757" x2="98.875" y1="556.33" y2="848.76" gradientTransform="matrix(2.1261 0 0 .47127 -1.2933 0)" gradientUnits="userSpaceOnUse">
   <stop stop-color="#2e4300" offset="0"/>
   <stop stop-color="#84c100" stop-opacity="0" offset="1"/>
  </linearGradient>
  <linearGradient id="d" x1="228.32" x2="134.3" y1="366.62" y2="870.98" gradientTransform="matrix(1.6644 0 0 .60323 -2.5919 0)" gradientUnits="userSpaceOnUse">
   <stop stop-color="#181d00" offset="0"/>
   <stop stop-color="#4b6c00" offset=".39991"/>
   <stop stop-color="#001700" offset="1"/>
  </linearGradient>
  <linearGradient id="c" x1="89.99" x2="86.751" y1="296.56" y2="658.43" gradientTransform="matrix(1.3948 0 0 .72397 178.48 -102.76)" gradientUnits="userSpaceOnUse">
   <stop stop-color="#002964" offset="0"/>
   <stop stop-color="#289dff" offset="1"/>
  </linearGradient>
 </defs>
 <g fill-rule="evenodd">
  <rect x="1.2908" y="-.17022" width="644.1" height="334.31" fill="url(#c)"/>
  <path d="m0 259.28c3.1494-.60526 16.787.00171 21.943 1.2908 7.8439 1.961 11.629 3.884 15.489 7.7447 9.584 9.584 65.243 3.8723 80.028 3.8723 28.487 0 55.44-1.2908 83.901-1.2908 13.738 0 31.994-.52227 45.177 3.8723 9.8058 3.2686 24.532 2.5816 34.851 2.5816 15.778 0 33.638 2.0807 49.05 5.1631 8.2341 1.6468 16.306.52682 24.525 2.5816 7.9581 1.9895 16.227 2.5816 24.525 2.5816 12.739 0 23.764 5.1631 34.851 5.1631 15.735 0 33.307 3.8723 49.05 3.8723 8.2286 0 17.08-.5704 24.525 1.2908 6.7941 1.6985 13.598 1.2908 20.652 1.2908h32.27c6.7068 0 11.77-2.5816 19.362-2.5816 8.2831 0 12.514-1.1924 18.071-2.5816 5.3724-1.3431 10.44-2.61 15.489-3.8723 4.2582-1.0646 10.915-4.0194 15.489-5.1631 5.6286-1.4072 13.525 0 19.362 0 6.496 0 12.247 3.2116 15.489 6.4539 3.227 3.227 3.227 9.6808 6.4539 12.908 6.6091 6.6091-1.1767 8.333-7.7447 11.617-14.719 7.3595-37.663 7.7447-54.213 7.7447-26.833 0-54.09 2.5816-81.319 2.5816-37.297 0-79.069 1.9989-114.88-5.1631-34.722-6.9443-71.583-9.0355-107.13-9.0355-42.233 0-83.897-2.5816-126.5-2.5816-27.446 0-65.192-1.1632-91.645-6.4539-9.641-1.9282-20.053-.65451-29.688-2.5816-10.947-2.1894-8.7066-4.9987-16.78-9.0355-4.9807-2.4903-8.7387-5.6601-12.908-7.7447-4.3516-2.1758-7.5121-6.2213-10.326-9.0355-3.8384-3.8384 2.5816-6.0431 2.5816-15.489z" fill="#333c5c"/>
  <path d="m1.296 267.02s138.67-23.234 187.91-18.071 226.79 23.234 251.42 27.106c24.623 3.8723 141.26 23.234 156.81 24.525s45.358 2.5816 45.358 2.5816l3.8879 179.42h-646.68l1.296-215.56z" fill="url(#d)"/>
 </g>
 <path d="m3.5028e-7 269.6s106.05-14.199 137.09-14.199c31.04 0 333.68 63.248 397.06 83.901 63.374 20.652 124.16 32.27 117.69 40.014s-168.13 19.362-346.61 20.652c-178.48 1.2908-303.93-50.34-303.93-50.34l-1.2933-80.028z" fill="url(#e)" fill-rule="evenodd"/>
 <g>
  <path d="m3.8013 392.16c6.3967-2.1351 13.285-3.6148 19.983-4.9654 37.071-3.3287 74.306-6.6914 111.55-7.1572 131.59 2.0123 262.99 9.8983 394.6 11.355 8.0034.04715 16.007.10618 24.01.14147 29.509.13011 58.95-.08052 88.437-1.2847 9.037-.36906 43.347-7.322 29.681-.89825-19.599-14.441-41.653-27.435-64.284-36.875-19.508-7.1487-39.801-11.84-60.186-15.666l6.2038-4.3302c20.394 3.9938 40.69 8.8468 60.309 15.768 22.876 9.3635 46.77 22.077 66.014 37.277-39.324 28.69-109.83-.64528-154.77 9.1873-131.92-2.154-263.69-10.172-395.65-10.565-37.692.8184-75.37 4.4324-112.85 8.2864-6.8431 1.419-13.632 3.2647-20.344 5.0265l7.2939-5.2993z" fill="#294100"/>
  <path d="m112.65 483.56c79.249-32.997 166.83-48.788 252.03-57.755 191.42-20.757 385.58-14.01 575.23-50.264 6.8794-1.4277 13.759-2.8553 20.638-4.283l-12.293 9.3049c-6.6773 1.2659-13.355 2.5318-20.032 3.7977-189.99 33.46-383.96 27.679-575.21 50.117-85.919 9.6943-174.79 25.246-254.19 60.15l13.836-11.067z" fill="#253900"/>
  <path d="m417.41 489.48c101.44-33.757 208.5-36.846 314.31-41.278 33.301-2.0198 66.558-4.6652 99.815-7.2877l-11.373 8.394c-33.165 2.3545-66.32 4.8545-99.499 6.9986-106.94 4.4762-215.24 8.5166-317.35 43.952l14.096-10.779z" fill="#1b2b00"/>
  <path d="m169.16 387.13c-45.972.75084-90.938 11.043-135.04 23.269-35.836 9.6881-70.93 22.245-104 39.174l6.5193-5.2192c32.878-16.376 67.652-28.554 103.05-38.233 44.694-12.479 90.254-22.349 136.77-24.29l-7.2939 5.2993z" fill="#2a4300"/>
 </g>
 <g fill-rule="evenodd" opacity=".44756">
  <g>
   <path d="m631.19 256.7c-4.5604-6.2263-8.553-6.9787-16.78-9.0355-7.3583-1.8396-14.951 3.1459-19.362 6.4539-5.8514 4.3886-13.53-2.2472-19.362-5.1631-3.7222-1.8611-15.252-.58607-18.071-1.2908-8.5195-2.1299-9.6041-1.2908-18.071-1.2908-6.2326 0-12.319-1.4379-18.071 0-6.0657 1.5164-14.345 0-20.652 0-8.2285 0-16.083-1.2908-24.525-1.2908h-27.106c-7.7745 0-15.233.77366-21.943-2.5816-8.0544-4.0272-15.339 1.2908-23.234 1.2908-6.5249 0-13.009-4.4088-16.78-5.1631-3.6732-.73465-23.461 3.8723-30.979 3.8723-8.5729 0 16.118 6.0634 24.525 7.7447 10.092 2.0184 16.382 0 25.816 0 5.5505 0 12.525 7.3615 16.78 11.617 5.385 5.385 15.982 3.8724 24.525 3.8724 9.262 0 11.198-2.1542 18.071-3.8724 8.7052-2.1763 20.887 0 29.688 0 8.8698 0 9.8922.84532 11.617 7.7447 2.217 8.868 9.5898 4.2406 15.489 1.2908 7.6192-3.8096 15.929-3.05 14.199 3.8723-2.2503 9.0012 3.7435 5.873 7.7447 3.8723 4.8624-2.4312 12.295-1.2908 18.071-1.2908 7.6751 0 12.632.27531 16.78-3.8723.54331-.54332 9.3103 7.7447 14.199 7.7447 9.2089 0 20.808-2.6985 25.816-6.4539 5.2528-3.9396 6.6272-6.7333 12.908-5.1631 9.4726 2.3681 6.0456-9.9732-1.2908-12.908z" fill="url(#b)"/>
   <path d="m551.4 227.97c6.049 1.2322-13.337-1.2273-17.746-4.8198-6.0582-4.9363-8.8687-7.7116-17.746-7.7116-9.4664 0-19.313 3.8558-29.576 3.8558-6.5598 0-8.9396-1.9279-16.563-1.9279-7.4845 0-11.061-1.301-15.38-4.8198-6.2364-5.0814-9.2254-6.8626-17.746-9.6396-5.6234-1.8328-8.2813-4.3042-8.2813-9.6396 0-6.6551-11.725-13.324-14.197-17.351-1.9681-3.2073 2.795-13.23 3.5492-14.459 1.9097-3.1121 13.869-7.163 16.563-7.7116 8.16-1.6622 18.235-.96396 27.21-.96396 8.4886 0 13.411 17.673 26.027 20.243 5.9243 1.2068 9.7934-2.9589 14.197-3.8558 6.13-1.2487 3.156-2.2453 1.183-8.6756-1.3146-4.2846-12.842-9.4999-17.746-13.495-3.9565-3.2238-10.528-5.0364-14.197-5.7837-5.7896-1.1794-7.7524-2.8919-15.38-2.8919-9.8021 0-13.566 3.406-18.929-.96395-4.6519-3.7904 2.602-11.76 3.5492-12.531 3.6013-2.9343 10.187-4.4444 13.014-6.7477 3.0344-2.4724 15.954-.60601 18.929 0 5.5377 1.128 2.1351 7.1826 9.4644 8.6756 1.5845.32276 9.5609-2.8919 14.197-2.8919 5.6462 0 4.5732 8.4165 7.0983 12.531 3.458 5.6353 7.7077 8.364 15.38 12.531 8.9957 4.8865 8.2813 2.6472 8.2813 12.531 0 5.2712-1.183 7.909-1.183 13.495 0 5.7018 5.7729 6.7477 13.014 6.7477 6.9998 0 11.049-4.4743 13.014 1.9279 1.6834 5.4867-1.9472 7.4303 1.183 12.531 3.9365 6.415 15.75-1.5671 9.4644 8.6756-1.9134 3.1181 15.73 1.9279 21.295 1.9279 7.6306 0 8.9802 1.1389 11.83 5.7837 2.8112 4.5812 5.6165 3.554 11.83 4.8198 8.2899 1.6887 9.7549 1.8096 2.3661 4.8198-4.8611 1.9804-9.2343 4.2909-16.563 5.7837-6.363 1.2961-9.5036 1.9279-16.563 1.9279h-17.746c-2.4941 0-4.7322-1.2853-7.0983-1.9279z" fill="url(#f)"/>
   <path d="m387.23 177.96c-8.0838 0-4.6101-16.227-10.326-21.943-8.1994-8.1994-46.612-12.334-49.05-2.5816-2.1996 8.7983 2.5924 11.639 5.1631 16.78 5.329 10.658 3.8344 12.908 20.652 12.908 10.242 0 17.732 3.7029 25.816 7.7447 19.212 9.6062 14.166-4.8815 7.7447-12.908z" fill="url(#b)"/>
   <path d="m376.91 206.35c5.8236 2.9118-13.045-1.0024-19.362-2.5816-9.268-2.317-17.569-3.3702-21.943-7.7447-4.639-4.639-7.148-5.8572-11.617-10.326-4.8757-4.8757-15.598-5.1631-23.234-5.1631-1.0065 0-9.3485-9.3485-10.326-10.326-5.377-5.377-9.7528-11.976-19.362-16.78-8.1348-4.0674-11.465-4.1571-20.652-6.4539-.165-.04125-10.376 11.009-12.908 12.908-4.8976 3.6732-12.658 3.1023-16.78 5.1631-6.1458 3.0729-3.7421 12.138-2.5816 16.78 1.7212 6.885-2.5084 10.345 7.7447 12.908 7.1786 1.7946 17.164 0 24.525 0 7.8306 0 16.178.4733 23.234-1.2908 6.5752-1.6438 12.382-1.1594 18.071-2.5816 5.419-1.3548 13.298 3.4221 16.78 5.1631 6.3354 3.1677 14.268 5.1976 19.362 7.7447 6.3641 3.182 8.3893 3.8723 16.78 3.8723 8.2406 0 17.108 1.05 23.234 2.5816 5.2792 1.3198 4.4821 7.5111 9.0355-3.8723z" fill="url(#b)"/>
   <path d="m627.32 127.62c6.8461 1.7115-10.468-9.7519-16.78-12.908-5.6431-2.8216-15.235-2.5816-21.943-2.5816-4.9747 0-9.1987-8.3925-11.617-11.617-4.1525-5.5367-4.0187-7.4519-1.2908-12.908 2.47-4.94 9.2551-3.8723 15.489-3.8723 8.8003 0 9.0109 7.4281 18.071 5.1631 6.2916-1.5729 4.7215-6.4539 12.908-6.4539 9.5718 0 13.321 3.8723 20.652 3.8723 7.6218 0 5.649 10.964 5.1631 12.908-1.5052 6.0209-1.2908 11.078-1.2908 18.071v19.362c0 11.064-2.4772 6.5582-6.4539 2.5816-2.1668-2.1668-4.8449-3.5541-6.4539-5.1631" fill="url(#g)"/>
   <path d="m645.39 32.099c-1.3964-1.3965-23.659-1.0743-29.688-2.5816-5.5-1.375-9.5184-2.7835-15.489-1.2908-8.0165 2.0041-8.774 4.0031-14.199 1.2908-5.392-2.696-8.6518-15.106-12.908-19.362-4.7364-4.7364-9.5949-4.0552-15.489-2.5816-4.1274 1.0318 7.2572 19.678 7.7447 20.652 3.1155 6.231 7.7447.37455 7.7447 11.617 0 8.9592-10.502 7.7447-19.362 7.7447-9.3604 0-9.4175 1.8174-12.908-5.1631-3.1421-6.2841-6.6974-7.4829-12.908-9.0355-8.7623-2.1906-10.642 1.9495-14.199-5.1631-4.0866-8.1733-4.12-12.413-1.2908-18.071 2.8268-5.6537 5.1631-8.2176 5.1631-15.489 0-1.1228 29.855 2.5816 36.142 2.5816h23.234 24.525 23.234c7.3898 0 10.692-1.2908 18.071-1.2908 6.5515 0 3.8723 10.873 3.8723 16.78" fill="url(#h)"/>
   <path d="m117.46 122.45c7.096 0-13.768-3.4421-20.652-5.1631-9.2413-2.3103-19.481-2.5816-29.688-2.5816-18.579 0 5.3318 3.9286 12.908 6.4539 1.683.56099 3.4421.86052 5.1631 1.2908 5.3378 1.3344 25.152 3.8723 11.617 3.8723-12.452 0-29.986 12.808-30.979 16.78-.1121.44841 21.286 1.2908 41.305 1.2908 2.8863 0-10.631 3.8723-7.7447 3.8723 13.426 0 26.344 5.1631 40.014 5.1631 18.417 0-2.5958.00285-9.0355 1.2908-11.171 2.2341 22.509 3.691 33.56 6.4539 10.543 2.6357 25.039-6.3253 3.8723-11.617-16.946-4.2365-24.948 2.181-28.397-11.617-1.3199-5.2797 22.413-2.1119 12.908-11.617-1.8719-1.8719-16.362-3.4452-18.071-3.8723-4.6668-1.1667-8.0974-6.4539-12.908-6.4539h2.5816" fill="url(#b)"/>
   <path d="m216.85-.17022c-2.2658 0 19.751-1.8318 40.014 10.326 6.9612 4.1767-13.391 9.2773-20.652 12.908-11.954 5.9769 42.204 1.2908 50.34 1.2908 11.81 0 20.452-3.7719 7.7447 2.5816-21.349 10.674-35.046 12.908-3.8723 12.908 18.922 0 34.658-2.388 28.397 3.8723-.43078.43078 26.358-2.7171 5.1631 2.5816l-5.1631 1.2908c-9.4848 2.3712 14.148 9.0355 18.071 9.0355 14.446 0 60.469 14.795 63.248 15.489 8.4003 2.1001-16.029-6.814-23.234-11.617-6.7152-4.4768-11.657-8.4103-18.071-11.617-6.7984-3.3992-19.142-5.218-9.0355-7.7447 14.257-3.5643 11.297-1.7179 3.8723-11.617-2.3801-3.1734-5.9707-5.4874-7.7447-9.0355-.15579-.31157 42.135 8.8628 42.596 9.0355 1.661.6229 3.4421.86052 5.1631 1.2908.66965.16742-17.208-11.615-25.816-16.78-1.65-.98998-3.4421-1.721-5.1631-2.5816-12.191-6.0954 3.2023-2.5816 11.617-2.5816 9.5077 0-.02132-9.0568-1.2908-10.326" fill="url(#i)"/>
  </g>
  <g fill="#fff">
   <path d="m434.28 158.57c-4.3084 1.0886-7.4992 4.1984-9.4644 10.604-1.622 5.2864 1.5032 9.1974 3.5491 12.531 4.9596 8.0822-2.3836 8.6756 14.197 8.6756h20.112c6.1545 0 15.413 4.6324 22.478 5.7837 9.6652 1.575 17.67 8.9214 20.112.96396 2.2823-7.4385 2.3014-7.7116 14.197-7.7116 14.6 0 30.455 3.8268 33.125 12.531 1.3496 4.3985 8.2813 9.1786 8.2813 1.9279 0-6.2466-13.623-9.0478-17.746-11.567-4.1735-2.5505-1.721-12.006-7.0983-16.387-6.6126-5.3879-21.295-1.4765-21.295-9.6396 0-7.0103 4.0997-11.634 0-18.315-3.4243-5.5804-6.4032-5.5849-10.647-3.8558-2.3792.96931.91373 15.51 1.183 16.387 1.9883 6.4802-.92595 6.6429-8.2813 9.6396-8.9958 3.6649-22.665-2.4048-29.576-5.7837-6.5704-3.2122-4.9724-8.0016-13.014-9.6396-10.017-2.0405-13.083 3.8558-20.112 3.8558z" fill-opacity=".77273"/>
   <path d="m255.57 154.72c-4.1079-2.9807-13.026-3.7539-18.071 1.2908-5.4201 5.4201-3.5236 9.0355-12.908 9.0355-9.8276 0-8.2561 4.1404-5.1631 10.326 2.2603 4.5205 20.971 2.5816 25.816 2.5816h19.362c12.911 0 16.691 1.2013 23.234 7.7447 4.3042 4.3042-1.0155-13.098-1.2908-14.199-1.7385-6.954-3.982-10.436-7.7447-14.199-3.7271-3.7271-16.579-2.5816-23.234-2.5816z" fill-opacity=".59091"/>
   <path d="m411.76 267.02c-5.8402-5.8402 12.434-9.2725 15.489-7.7447 8.0467 4.0233 15.26 2.6674 25.816-1.2908 9.2052-3.4519 15.592-.59418 21.943 2.5816 5.1452 2.5726 8.9756 3.8723 16.78 3.8723 9.7292 0 14.247-1.2428 20.652 5.1631 3.4046 3.4045 20.96-2.9811 24.525-3.8723 8.3997-2.0999 13.107.39787 15.489 5.1631 4.9942 9.9884-4.4446 7.7447-11.617 7.7447h-21.943-29.688c-8.2129 0-14.34-3.3842-23.234-5.1631-6.2586-1.2517-12.361-2.5816-21.943-2.5816h-19.362c-5.7262 0-6.1781-2.5264-12.908-3.8723z" fill-opacity=".59091"/>
  </g>
  <path d="m1.2908 14.028c9.0145.38387 27.093 6.9649 38.723 11.617 3.948 1.5792-1.2908 5.1495-1.2908-9.0355 0-4.0426 12.869 10.248 12.908 10.326 1.9338 3.8676 9.0402-3.2246 12.908-1.2908 4.4879 2.244 8.6052 5.1631 12.908 7.7447 8.5891 5.1534 16.354 8.4672 16.78 9.0355 4.618 6.1574-8.4595-13.186-10.326-20.652-.20852-.83407 18.21 7.0118 15.489-3.8723-2.236-8.9439 18.646-.35804 21.943 1.2908 6.5572 3.2786 2.4577.12383 7.7447-5.1631 4.9503-4.9503 2.5816-9.5809 2.5816-11.617 0-4.6284-16.971-3.8723-20.652-3.8723-9.9352 0-16.569-3.8723-24.525-3.8723-10.472 0-25.088-3.8723-37.433-3.8723h-25.816c-9.9612 0-13.336 1.5048-20.652 5.1631-5.6347 2.8174-3.5733 12.365-1.2908 18.071z" fill="url(#j)"/>
 </g>
</svg>
