<?xml version="1.0" encoding="UTF-8"?>
<svg version="1.1" xmlns="http://www.w3.org/2000/svg" xmlns:xlink="http://www.w3.org/1999/xlink" viewBox="10 0 620 480">
 <defs>
  <linearGradient id="linearGradient6817">
   <stop stop-color="#fff" offset="0"/>
   <stop stop-color="#fff" stop-opacity="0" offset="1"/>
  </linearGradient>
  <linearGradient id="linearGradient11512" x1="34.12" x2="34.12" y1="-25.77" y2="79.45" gradientTransform="scale(1.579 .6331)" gradientUnits="userSpaceOnUse" xlink:href="#linearGradient6817"/>
  <linearGradient id="linearGradient11522" x1="216.7" x2="216.7" y1="-53.05" y2="687.9" gradientTransform="matrix(1.583 0 0 .6317 0 -2.582)" gradientUnits="userSpaceOnUse" xlink:href="#linearGradient6817"/>
  <linearGradient id="linearGradient11525" x1="216.7" x2="216.7" y1="-53.05" y2="687.9" gradientTransform="scale(1.583 .6317)" gradientUnits="userSpaceOnUse" xlink:href="#linearGradient6817"/>
  <linearGradient id="linearGradient11528" x1="216.7" x2="216.7" y1="-53.05" y2="687.9" gradientTransform="matrix(1.583 0 0 .6317 2.582 -5.163)" gradientUnits="userSpaceOnUse" xlink:href="#linearGradient6817"/>
  <linearGradient id="linearGradient11531" x1="216.7" x2="216.7" y1="-53.05" y2="687.9" gradientTransform="matrix(1.583 0 0 .6317 5.163 1.291)" gradientUnits="userSpaceOnUse" xlink:href="#linearGradient6817"/>
  <linearGradient id="linearGradient11540" x1="216.7" x2="216.7" y1="-53.05" y2="687.9" gradientTransform="matrix(1.451 0 0 .4717 46.24 62.3)" gradientUnits="userSpaceOnUse" xlink:href="#linearGradient6817"/>
  <linearGradient id="linearGradient11546" x1="4.976" x2="98.87" y1="556.3" y2="848.8" gradientTransform="matrix(2.126 0 0 .4713 -1.293 0)" gradientUnits="userSpaceOnUse">
   <stop stop-color="#84c100" offset="0"/>
   <stop stop-color="#84c100" stop-opacity="0" offset="1"/>
  </linearGradient>
  <linearGradient id="linearGradient11549" x1="228.3" x2="134.3" y1="366.6" y2="871" gradientTransform="matrix(1.664 0 0 .6032 -2.592 0)" gradientUnits="userSpaceOnUse">
   <stop stop-color="#242a00" offset="0"/>
   <stop stop-color="#71a300" offset=".5"/>
   <stop stop-color="#001700" offset="1"/>
  </linearGradient>
  <linearGradient id="linearGradient11553" x1="91.53" x2="91.53" y1="91.1" y2="616.2" gradientTransform="matrix(1.395 0 0 .724 178.5 -102.8)" gradientUnits="userSpaceOnUse">
   <stop stop-color="#005ce0" offset="0"/>
   <stop stop-color="#d8edff" offset="1"/>
  </linearGradient>
 </defs>
 <g fill-rule="evenodd">
  <rect x="1.291" y="-.1702" width="644.1" height="334.3" fill="url(#linearGradient11553)"/>
  <path d="m0 259.3c3.149-0.6053 16.79 2e-3 21.94 1.291 7.844 1.961 11.63 3.884 15.49 7.745 9.584 9.584 65.24 3.872 80.03 3.872 28.49 0 55.44-1.291 83.9-1.291 13.74 0 31.99-0.5223 45.18 3.872 9.806 3.269 24.53 2.582 34.85 2.582 15.78 0 33.64 2.081 49.05 5.163 8.234 1.647 16.31 0.5268 24.52 2.582 7.958 1.99 16.23 2.582 24.52 2.582 12.74 0 23.76 5.163 34.85 5.163 15.73 0 33.31 3.872 49.05 3.872 8.229 0 17.08-0.5704 24.52 1.291 6.794 1.699 13.6 1.291 20.65 1.291h32.27c6.707 0 11.77-2.582 19.36-2.582 8.283 0 12.51-1.192 18.07-2.582 5.372-1.343 10.44-2.61 15.49-3.872 4.258-1.065 10.91-4.019 15.49-5.163 5.629-1.407 13.53 0 19.36 0 6.496 0 12.25 3.212 15.49 6.454 3.227 3.227 3.227 9.681 6.454 12.91 6.609 6.609-1.177 8.333-7.745 11.62-14.72 7.36-37.66 7.745-54.21 7.745-26.83 0-54.09 2.582-81.32 2.582-37.3 0-79.07 1.999-114.9-5.163-34.72-6.944-71.58-9.035-107.1-9.035-42.23 0-83.9-2.582-126.5-2.582-27.45 0-65.19-1.163-91.65-6.454-9.641-1.928-20.05-0.6545-29.69-2.582-10.95-2.189-8.707-4.999-16.78-9.035-4.981-2.49-8.739-5.66-12.91-7.745-4.352-2.176-7.512-6.221-10.33-9.035-3.838-3.838 2.582-6.043 2.582-15.49z" fill="#4a5784"/>
  <path d="m1.296 267s138.7-23.23 187.9-18.07 226.8 23.23 251.4 27.11c24.62 3.872 141.3 23.23 156.8 24.52s45.36 2.582 45.36 2.582l3.888 179.4h-646.7z" fill="url(#linearGradient11549)"/>
  <path d="m3.503e-7 269.6s106.1-14.2 137.1-14.2c31.04 0 333.7 63.25 397.1 83.9 63.37 20.65 124.2 32.27 117.7 40.01s-168.1 19.36-346.6 20.65c-178.5 1.291-303.9-50.34-303.9-50.34z" fill="url(#linearGradient11546)"/>
  <path d="m631.2 256.7c-4.56-6.226-8.553-6.979-16.78-9.035-7.358-1.84-14.95 3.146-19.36 6.454-5.851 4.389-13.53-2.247-19.36-5.163-3.722-1.861-15.25-0.5861-18.07-1.291-8.52-2.13-9.604-1.291-18.07-1.291-6.233 0-12.32-1.438-18.07 0-6.066 1.516-14.34 0-20.65 0-8.229 0-16.08-1.291-24.52-1.291h-27.11c-7.774 0-15.23 0.7737-21.94-2.582-8.054-4.027-15.34 1.291-23.23 1.291-6.525 0-13.01-4.409-16.78-5.163-3.673-0.7346-23.46 3.872-30.98 3.872-8.573 0 16.12 6.063 24.52 7.745 10.09 2.018 16.38 0 25.82 0 5.55 0 12.52 7.362 16.78 11.62 5.385 5.385 15.98 3.872 24.52 3.872 9.262 0 11.2-2.154 18.07-3.872 8.705-2.176 20.89 0 29.69 0 8.87 0 9.892 0.8453 11.62 7.745 2.217 8.868 9.59 4.241 15.49 1.291 7.619-3.81 15.93-3.05 14.2 3.872-2.25 9.001 3.743 5.873 7.745 3.872 4.862-2.431 12.3-1.291 18.07-1.291 7.675 0 12.63 0.2753 16.78-3.872 0.5433-0.5433 9.31 7.745 14.2 7.745 9.209 0 20.81-2.699 25.82-6.454 5.253-3.94 6.627-6.733 12.91-5.163 9.473 2.368 6.046-9.973-1.291-12.91z" fill="url(#linearGradient11525)"/>
  <path d="m551.4 228c6.049 1.232-13.34-1.227-17.75-4.82-6.058-4.936-8.869-7.712-17.75-7.712-9.466 0-19.31 3.856-29.58 3.856-6.56 0-8.94-1.928-16.56-1.928-7.485 0-11.06-1.301-15.38-4.82-6.236-5.081-9.225-6.863-17.75-9.64-5.623-1.833-8.281-4.304-8.281-9.64 0-6.655-11.73-13.32-14.2-17.35-1.968-3.207 2.795-13.23 3.549-14.46 1.91-3.112 13.87-7.163 16.56-7.712 8.16-1.662 18.23-0.964 27.21-0.964 8.489 0 13.41 17.67 26.03 20.24 5.924 1.207 9.793-2.959 14.2-3.856 6.13-1.249 3.156-2.245 1.183-8.676-1.315-4.285-12.84-9.5-17.75-13.5-3.956-3.224-10.53-5.036-14.2-5.784-5.79-1.179-7.752-2.892-15.38-2.892-9.802 0-13.57 3.406-18.93-0.964-4.652-3.79 2.602-11.76 3.549-12.53 3.601-2.934 10.19-4.444 13.01-6.748 3.034-2.472 15.95-0.606 18.93 0 5.538 1.128 2.135 7.183 9.464 8.676 1.584 0.3228 9.561-2.892 14.2-2.892 5.646 0 4.573 8.417 7.098 12.53 3.458 5.635 7.708 8.364 15.38 12.53 8.996 4.886 8.281 2.647 8.281 12.53 0 5.271-1.183 7.909-1.183 13.5 0 5.702 5.773 6.748 13.01 6.748 7 0 11.05-4.474 13.01 1.928 1.683 5.487-1.947 7.43 1.183 12.53 3.937 6.415 15.75-1.567 9.464 8.676-1.913 3.118 15.73 1.928 21.29 1.928 7.631 0 8.98 1.139 11.83 5.784 2.811 4.581 5.617 3.554 11.83 4.82 8.29 1.689 9.755 1.81 2.366 4.82-4.861 1.98-9.234 4.291-16.56 5.784-6.363 1.296-9.504 1.928-16.56 1.928h-17.75c-2.494 0-4.732-1.285-7.098-1.928z" fill="url(#linearGradient11540)"/>
  <path d="m387.2 178c-8.084 0-4.61-16.23-10.33-21.94-8.199-8.199-46.61-12.33-49.05-2.582-2.2 8.798 2.592 11.64 5.163 16.78 5.329 10.66 3.834 12.91 20.65 12.91 10.24 0 17.73 3.703 25.82 7.745 19.21 9.606 14.17-4.882 7.745-12.91z" fill="url(#linearGradient11525)"/>
  <path d="m376.9 206.4c5.824 2.912-13.05-1.002-19.36-2.582-9.268-2.317-17.57-3.37-21.94-7.745-4.639-4.639-7.148-5.857-11.62-10.33-4.876-4.876-15.6-5.163-23.23-5.163-1.007 0-9.348-9.348-10.33-10.33-5.377-5.377-9.753-11.98-19.36-16.78-8.135-4.067-11.47-4.157-20.65-6.454-0.165-0.0413-10.38 11.01-12.91 12.91-4.898 3.673-12.66 3.102-16.78 5.163-6.146 3.073-3.742 12.14-2.582 16.78 1.721 6.885-2.508 10.34 7.745 12.91 7.179 1.795 17.16 0 24.52 0 7.831 0 16.18 0.4733 23.23-1.291 6.575-1.644 12.38-1.159 18.07-2.582 5.419-1.355 13.3 3.422 16.78 5.163 6.335 3.168 14.27 5.198 19.36 7.745 6.364 3.182 8.389 3.872 16.78 3.872 8.241 0 17.11 1.05 23.23 2.582 5.279 1.32 4.482 7.511 9.035-3.872z" fill="url(#linearGradient11525)"/>
  <path d="m627.3 127.6c6.846 1.712-10.47-9.752-16.78-12.91-5.643-2.822-15.23-2.582-21.94-2.582-4.975 0-9.199-8.393-11.62-11.62-4.153-5.537-4.019-7.452-1.291-12.91 2.47-4.94 9.255-3.872 15.49-3.872 8.8 0 9.011 7.428 18.07 5.163 6.292-1.573 4.722-6.454 12.91-6.454 9.572 0 13.32 3.872 20.65 3.872 7.622 0 5.649 10.96 5.163 12.91-1.505 6.021-1.291 11.08-1.291 18.07v19.36c0 11.06-2.477 6.558-6.454 2.582-2.167-2.167-4.845-3.554-6.454-5.163" fill="url(#linearGradient11531)"/>
  <path d="m645.4 32.1c-1.396-1.396-23.66-1.074-29.69-2.582-5.5-1.375-9.518-2.784-15.49-1.291-8.017 2.004-8.774 4.003-14.2 1.291-5.392-2.696-8.652-15.11-12.91-19.36-4.736-4.736-9.595-4.055-15.49-2.582-4.127 1.032 7.257 19.68 7.745 20.65 3.115 6.231 7.745 0.3746 7.745 11.62 0 8.959-10.5 7.745-19.36 7.745-9.36 0-9.418 1.817-12.91-5.163-3.142-6.284-6.697-7.483-12.91-9.035-8.762-2.191-10.64 1.949-14.2-5.163-4.087-8.173-4.12-12.41-1.291-18.07 2.827-5.654 5.163-8.218 5.163-15.49 0-1.123 29.85 2.582 36.14 2.582h23.23 24.52 23.23c7.39 0 10.69-1.291 18.07-1.291 6.551 0 3.872 10.87 3.872 16.78" fill="url(#linearGradient11528)"/>
  <path d="m117.5 122.5c7.096 0-13.77-3.442-20.65-5.163-9.241-2.31-19.48-2.582-29.69-2.582-18.58 0 5.332 3.929 12.91 6.454 1.683 0.561 3.442 0.8605 5.163 1.291 5.338 1.334 25.15 3.872 11.62 3.872-12.45 0-29.99 12.81-30.98 16.78-0.1121 0.4484 21.29 1.291 41.3 1.291 2.886 0-10.63 3.872-7.745 3.872 13.43 0 26.34 5.163 40.01 5.163 18.42 0-2.596 3e-3 -9.035 1.291-11.17 2.234 22.51 3.691 33.56 6.454 10.54 2.636 25.04-6.325 3.872-11.62-16.95-4.236-24.95 2.181-28.4-11.62-1.32-5.28 22.41-2.112 12.91-11.62-1.872-1.872-16.36-3.445-18.07-3.872-4.667-1.167-8.097-6.454-12.91-6.454h2.582" fill="url(#linearGradient11525)"/>
  <path d="m216.9-0.1702c-2.266 0 19.75-1.832 40.01 10.33 6.961 4.177-13.39 9.277-20.65 12.91-11.95 5.977 42.2 1.291 50.34 1.291 11.81 0 20.45-3.772 7.745 2.582-21.35 10.67-35.05 12.91-3.872 12.91 18.92 0 34.66-2.388 28.4 3.872-0.4308 0.4308 26.36-2.717 5.163 2.582l-5.163 1.291c-9.485 2.371 14.15 9.035 18.07 9.035 14.45 0 60.47 14.79 63.25 15.49 8.4 2.1-16.03-6.814-23.23-11.62-6.715-4.477-11.66-8.41-18.07-11.62-6.798-3.399-19.14-5.218-9.035-7.745 14.26-3.564 11.3-1.718 3.872-11.62-2.38-3.173-5.971-5.487-7.745-9.035-0.1558-0.3116 42.14 8.863 42.6 9.035 1.661 0.6229 3.442 0.8605 5.163 1.291 0.6696 0.1674-17.21-11.62-25.82-16.78-1.65-0.99-3.442-1.721-5.163-2.582-12.19-6.095 3.202-2.582 11.62-2.582 9.508 0-0.0213-9.057-1.291-10.33" fill="url(#linearGradient11522)"/>
 </g>
 <g fill="#fff" fill-rule="evenodd">
  <path d="m434.3 158.6c-4.308 1.089-7.499 4.198-9.464 10.6-1.622 5.286 1.503 9.197 3.549 12.53 4.96 8.082-2.384 8.676 14.2 8.676h20.11c6.154 0 15.41 4.632 22.48 5.784 9.665 1.575 17.67 8.921 20.11 0.964 2.282-7.438 2.301-7.712 14.2-7.712 14.6 0 30.45 3.827 33.13 12.53 1.35 4.398 8.281 9.179 8.281 1.928 0-6.247-13.62-9.048-17.75-11.57-4.174-2.55-1.721-12.01-7.098-16.39-6.613-5.388-21.29-1.476-21.29-9.64 0-7.01 4.1-11.63 0-18.32-3.424-5.58-6.403-5.585-10.65-3.856-2.379 0.9693 0.9137 15.51 1.183 16.39 1.988 6.48-0.926 6.643-8.281 9.64-8.996 3.665-22.66-2.405-29.58-5.784-6.57-3.212-4.972-8.002-13.01-9.64-10.02-2.041-13.08 3.856-20.11 3.856z" fill-opacity=".7727"/>
  <path d="m255.6 154.7c-4.108-2.981-13.03-3.754-18.07 1.291-5.42 5.42-3.524 9.035-12.91 9.035-9.828 0-8.256 4.14-5.163 10.33 2.26 4.521 20.97 2.582 25.82 2.582h19.36c12.91 0 16.69 1.201 23.23 7.745 4.304 4.304-1.016-13.1-1.291-14.2-1.738-6.954-3.982-10.44-7.745-14.2-3.727-3.727-16.58-2.582-23.23-2.582z" fill-opacity=".5909"/>
  <path d="m411.8 267c-5.84-5.84 12.43-9.272 15.49-7.745 8.047 4.023 15.26 2.667 25.82-1.291 9.205-3.452 15.59-0.5942 21.94 2.582 5.145 2.573 8.976 3.872 16.78 3.872 9.729 0 14.25-1.243 20.65 5.163 3.405 3.405 20.96-2.981 24.52-3.872 8.4-2.1 13.11 0.3979 15.49 5.163 4.994 9.988-4.445 7.745-11.62 7.745h-21.94-29.69c-8.213 0-14.34-3.384-23.23-5.163-6.259-1.252-12.36-2.582-21.94-2.582h-19.36c-5.726 0-6.178-2.526-12.91-3.872z" fill-opacity=".5909"/>
 </g>
 <g fill="#324f00">
  <path d="m3.801 392.2c6.397-2.135 13.28-3.615 19.98-4.965 37.07-3.329 74.31-6.691 111.5-7.157 131.6 2.012 263 9.898 394.6 11.35 8.003 0.0471 16.01 0.1062 24.01 0.1415 29.51 0.1301 58.95-0.0805 88.44-1.285 9.037-0.3691 43.35-7.322 29.68-0.8982-19.6-14.44-41.65-27.43-64.28-36.88-19.51-7.149-39.8-11.84-60.19-15.67l6.204-4.33c20.39 3.994 40.69 8.847 60.31 15.77 22.88 9.363 46.77 22.08 66.01 37.28-39.32 28.69-109.8-0.6453-154.8 9.187-131.9-2.154-263.7-10.17-395.6-10.56-37.69 0.8184-75.37 4.432-112.8 8.286-6.843 1.419-13.63 3.265-20.34 5.027z"/>
  <path d="m112.7 483.6c79.25-33 166.8-48.79 252-57.75 191.4-20.76 385.6-14.01 575.2-50.26 6.879-1.428 13.76-2.855 20.64-4.283l-12.29 9.305c-6.677 1.266-13.35 2.532-20.03 3.798-190 33.46-384 27.68-575.2 50.12-85.92 9.694-174.8 25.25-254.2 60.15z"/>
  <path d="m417.4 489.5c101.4-33.76 208.5-36.85 314.3-41.28 33.3-2.02 66.56-4.665 99.81-7.288l-11.37 8.394c-33.16 2.354-66.32 4.854-99.5 6.999-106.9 4.476-215.2 8.517-317.3 43.95z"/>
  <path d="m169.2 387.1c-45.97 0.7508-90.94 11.04-135 23.27-35.84 9.688-70.93 22.24-104 39.17l6.519-5.219c32.88-16.38 67.65-28.55 103-38.23 44.69-12.48 90.25-22.35 136.8-24.29z"/>
 </g>
 <path d="m1.291 14.03c9.015 0.3839 27.09 6.965 38.72 11.62 3.948 1.579-1.291 5.15-1.291-9.035 0-4.043 12.87 10.25 12.91 10.33 1.934 3.868 9.04-3.225 12.91-1.291 4.488 2.244 8.605 5.163 12.91 7.745 8.589 5.153 16.35 8.467 16.78 9.035 4.618 6.157-8.46-13.19-10.33-20.65-0.2085-0.8341 18.21 7.012 15.49-3.872-2.236-8.944 18.65-0.358 21.94 1.291 6.557 3.279 2.458 0.1238 7.745-5.163 4.95-4.95 2.582-9.581 2.582-11.62 0-4.628-16.97-3.872-20.65-3.872-9.935 0-16.57-3.872-24.52-3.872-10.47 0-25.09-3.872-37.43-3.872h-25.82c-9.961 0-13.34 1.505-20.65 5.163-5.635 2.817-3.573 12.36-1.291 18.07z" fill="url(#linearGradient11512)" fill-rule="evenodd"/>
</svg>
