<?xml version="1.0" encoding="UTF-8" standalone="no"?>
<svg
   xmlns:dc="http://purl.org/dc/elements/1.1/"
   xmlns:cc="http://creativecommons.org/ns#"
   xmlns:rdf="http://www.w3.org/1999/02/22-rdf-syntax-ns#"
   xmlns:svg="http://www.w3.org/2000/svg"
   xmlns="http://www.w3.org/2000/svg"
   xmlns:sodipodi="http://sodipodi.sourceforge.net/DTD/sodipodi-0.dtd"
   xmlns:inkscape="http://www.inkscape.org/namespaces/inkscape"
   version="1.1"
   id="svg62"
   width="1440"
   height="1440"
   viewBox="0 0 1440 1440"
   sodipodi:docname="network-icon.svg"
   inkscape:version="1.0.2 (e86c870879, 2021-01-15)"
   inkscape:export-filename="/home/dan/Code/dist-app-poc/dist-app/public/network-icon-512.png"
   inkscape:export-xdpi="34.130001"
   inkscape:export-ydpi="34.130001">
  <metadata
     id="metadata68">
    <rdf:RDF>
      <cc:Work
         rdf:about="">
        <dc:format>image/svg+xml</dc:format>
        <dc:type
           rdf:resource="http://purl.org/dc/dcmitype/StillImage" />
        <dc:title></dc:title>
      </cc:Work>
    </rdf:RDF>
  </metadata>
  <defs
     id="defs66" />
  <sodipodi:namedview
     pagecolor="#ffffff"
     bordercolor="#666666"
     borderopacity="1"
     objecttolerance="10"
     gridtolerance="10"
     guidetolerance="10"
     inkscape:pageopacity="0"
     inkscape:pageshadow="2"
     inkscape:window-width="2666"
     inkscape:window-height="1616"
     id="namedview64"
     showgrid="false"
     inkscape:zoom="0.5617797"
     inkscape:cx="18.419214"
     inkscape:cy="685.41962"
     inkscape:window-x="0"
     inkscape:window-y="80"
     inkscape:window-maximized="1"
     inkscape:current-layer="g70" />
  <g
     inkscape:groupmode="layer"
     inkscape:label="Image"
     id="g70">
    <path
       style="fill:#87b3f3;fill-opacity:1;stroke-width:1.07335"
       d="m 579.59646,1370.5697 c -25.10327,-3.9598 -45.7497,-14.8102 -63.16646,-33.196 -13.97808,-14.7557 -22.62012,-31.3858 -26.79099,-51.5546 -3.01326,-14.571 -2.26345,-36.2448 1.72687,-49.9156 10.54256,-36.1189 37.4738,-63.0674 74.1861,-74.2339 8.95798,-2.7246 11.0254,-2.9374 28.44371,-2.928 15.98003,0.011 20.0652,0.3613 27.37036,2.3621 11.29704,3.094 28.2645,11.3906 37.29844,18.2381 l 7.2447,5.4911 15.2956,-6.7898 c 67.19275,-29.8269 135.55003,-74.1411 192.93463,-125.0741 16.84908,-14.9547 30.05373,-27.2731 30.05373,-28.0365 0,-0.4165 -7.12435,-6.9647 -15.83188,-14.5517 -19.57432,-17.05527 -59.23623,-56.00584 -77.47744,-76.08784 -23.02417,-25.34764 -50.4918,-58.967 -69.27854,-84.79446 -3.43529,-4.72273 -6.62084,-9.0091 -7.079,-9.52526 -0.45817,-0.51617 -6.06189,3.15198 -12.45271,8.15145 -80.27152,62.79542 -165.1936,109.06645 -257.58315,140.34794 -12.30538,4.16638 -22.97111,7.79079 -23.70161,8.05429 -2.18938,0.78977 18.46987,29.84658 39.28864,55.25878 15.86757,19.3685 23.72524,28.0019 46.03946,50.5843 l 20.77876,21.0285 -5.16205,1.9387 c -15.16627,5.6962 -32.60589,16.3161 -46.05423,28.0448 l -7.77623,6.7818 -13.96372,-14.4595 c -34.88931,-36.128 -62.66167,-70.4161 -89.51549,-110.5168 -7.1159,-10.6261 -13.10627,-19.5217 -13.31195,-19.7681 -0.20566,-0.2463 -5.80746,0.6007 -12.44844,1.8822 -31.72469,6.1219 -58.94005,9.923 -89.89219,12.5547 -11.51165,0.9788 -21.11323,1.9567 -21.33682,2.1731 -0.2236,0.2164 2.91594,4.8605 6.97675,10.3202 51.05256,68.6389 111.48846,121.1415 186.90069,162.3666 7.23168,3.9533 13.14126,7.5162 13.1324,7.9174 -0.009,0.4013 -1.19551,4.5265 -2.637,9.1671 -4.54756,14.64 -6.16999,27.6403 -5.76392,46.1853 0.20181,9.2162 -4.2e-4,16.7563 -0.44938,16.7558 -1.66116,0 -39.6218,-19.461 -53.51372,-27.4317 -44.40169,-25.4764 -91.31918,-61.2337 -128.20942,-97.7123 C 159.75451,1056.6429 94.912385,923.14608 78.319281,777.58422 73.9293,739.07336 73.423979,681.3025 77.164487,645.56247 85.727225,563.74685 106.56822,491.70648 142.35322,420.22674 c 12.49165,-24.9518 11.07015,-23.65638 15.99645,-14.57753 9.23756,17.02423 22.00027,32.69825 35.38308,43.45436 4.37493,3.51624 8.07821,6.45519 8.22951,6.53099 0.15131,0.0758 -2.34901,5.70108 -5.55626,12.50062 -19.99174,42.38351 -36.73161,95.92785 -44.56419,142.5435 -19.67745,117.11057 -3.34445,233.10012 48.12215,341.74161 l 6.55354,13.83394 18.51511,-0.73398 c 23.11365,-0.91627 43.54808,-2.40516 60.91233,-4.43819 13.48148,-1.57843 48.57213,-6.88375 49.14291,-7.42987 0.16809,-0.16081 -3.31101,-7.23896 -7.73131,-15.72923 C 301.27852,887.83384 278.10554,828.145 262.20646,770.10979 232.36483,661.18111 224.77854,549.16228 240.27043,446.20326 c 2.32594,-15.45817 2.33367,-15.83146 0.34164,-16.46372 -4.85294,-1.54026 -21.43649,-13.84754 -27.92027,-20.72069 -21.15229,-22.42254 -31.07181,-49.35709 -29.46624,-80.00987 1.04314,-19.91512 6.43922,-36.26899 17.40516,-52.74979 15.90423,-23.90258 39.61605,-39.83468 68.14066,-45.78408 8.34071,-1.73963 12.83442,-2.02599 24.687,-1.5732 17.47047,0.66741 27.53599,3.05664 41.80065,9.92212 13.01458,6.26383 21.1415,12.13972 31.30419,22.63345 13.14469,13.57285 21.28152,28.17406 26.46087,47.48294 3.73858,13.93761 3.95935,37.92038 0.46753,50.78754 -5.53943,20.41248 -15.1467,37.53164 -28.5366,50.84921 -13.03901,12.96858 -29.9029,22.6746 -47.6487,27.42422 l -8.65312,2.31598 -1.21008,6.94882 c -1.91866,11.01776 -5.1161,36.98336 -6.64113,53.93104 -2.09165,23.24426 -1.78711,84.55486 0.54914,110.55479 8.66019,96.37889 34.26029,189.28516 76.60142,277.99701 6.97801,14.62011 23.28562,45.768 24.84665,47.45763 0.38975,0.42185 8.42968,-1.60465 17.86652,-4.50334 70.23296,-21.57328 140.27761,-54.94152 203.92037,-97.14466 24.83943,-16.47167 59.33744,-41.83504 70.0826,-51.52562 1.11127,-1.0022 -0.96304,-5.12308 -10.39314,-20.64738 -36.1297,-59.4785 -67.27527,-125.42204 -91.642,-194.03087 -4.40292,-12.39716 -9.105,-26.27505 -10.44906,-30.83976 l -2.44377,-8.29946 -9.24106,-2.73921 C 532.3759,516.1758 485.48471,499.37359 450.16712,484.35839 c -15.69312,-6.6719 -65.96093,-30.51741 -67.43046,-31.98694 -0.24399,-0.24397 3.67932,-4.34628 8.71845,-9.11625 10.51588,-9.95415 18.69452,-20.24801 26.45141,-33.29251 2.98388,-5.0179 5.57906,-9.58375 5.76704,-10.14634 0.18798,-0.56257 9.24472,3.13286 20.1261,8.21208 23.72463,11.0742 44.37929,19.9189 65.40157,28.00614 23.21138,8.92938 49.37399,17.90782 49.37399,16.94409 0,-0.46672 -2.1454,-11.6645 -4.76755,-24.88398 -10.53832,-53.1284 -15.96973,-102.18202 -17.35133,-156.70801 -0.80968,-31.95427 1.48675,-85.85926 4.39627,-103.19552 0.27246,-1.62343 10e-4,-2.9517 -0.60243,-2.9517 -1.84976,0 -38.86978,13.66895 -51.14494,18.88431 -27.28705,11.59349 -52.3367,24.58209 -77.67578,40.27602 l -13.51401,8.36997 -5.80625,-5.4525 c -13.86566,-13.02087 -31.18926,-23.96635 -49.0085,-30.9648 -4.87031,-1.91279 -8.85512,-3.61996 -8.85512,-3.79369 0,-0.78166 25.53342,-18.29536 38.64052,-26.50403 C 529.81964,67.770894 724.17943,42.3781 900.50716,97.121883 1013.5258,132.21032 1118.0141,200.84779 1194.7385,290.39981 c 15.4143,17.99153 32.664,40.45742 31.7021,41.28868 -0.4289,0.37069 -3.9195,1.52292 -7.7567,2.56052 -16.0921,4.35137 -31.8759,11.98811 -46.5763,22.53513 -4.5621,3.27319 -8.6278,5.94094 -9.0347,5.92834 -0.4068,-0.0126 -2.1835,-2.06538 -3.9481,-4.56173 -12.6699,-17.92421 -48.5223,-56.28171 -71.3893,-76.37762 -13.7048,-12.04397 -30.1908,-25.51985 -30.6538,-25.05683 -0.1865,0.18647 -1.3494,8.5401 -2.5843,18.56361 -9.9242,80.55372 -30.5928,154.05326 -66.19889,235.41017 l -1.57095,3.58946 9.44847,-0.68941 c 36.78827,-2.68426 66.84227,-6.17303 93.70617,-10.8777 24.2064,-4.23926 59.6814,-12.45284 61.3358,-14.20116 0.3804,-0.40199 0.9335,-7.73448 1.2291,-16.29443 0.6391,-18.50756 2.6217,-26.57208 10.423,-42.39722 10.5751,-21.45204 26.9283,-37.62596 48.8371,-48.30182 16.9158,-8.24288 27.2914,-10.60144 46.6906,-10.61357 18.7027,-0.0117 29.4758,2.26721 44.6111,9.43684 12.9553,6.13702 21.7094,12.18674 31.081,21.47928 31.3687,31.10416 40.1669,80.00916 21.617,120.15802 -14.0136,30.3307 -41.7182,52.73505 -74.0473,59.88097 -8.3202,1.83908 -12.4217,2.09668 -26.4819,1.66331 -11.0443,-0.34042 -18.9821,-1.14685 -23.6136,-2.39901 -16.5885,-4.48481 -33.6604,-13.8434 -45.0218,-24.68027 l -6.027,-5.74887 -17.5856,4.75552 c -53.6499,14.50816 -122.5215,24.04747 -188.35329,26.08855 l -22.46119,0.6964 -10.63226,17.71023 c -39.26187,65.3992 -89.90134,129.69691 -141.58227,179.76918 l -15.11445,14.64402 3.56802,5.02976 c 14.38919,20.28439 36.74487,48.64662 57.26481,72.65064 16.91628,19.78862 68.73653,71.58579 89.64802,89.60814 l 16.58376,14.29258 3.66591,-4.18639 c 94.85494,-108.32367 162.75214,-235.84378 194.82334,-365.90452 2.038,-8.26477 4.0142,-16.37364 4.3916,-18.01968 l 0.6862,-2.99283 7.2144,6.131 c 12.7946,10.87336 27.0045,19.1319 44.2448,25.7145 7.2977,2.78634 9.0564,3.87673 8.7882,5.44868 -1.1814,6.92768 -12.3558,45.4373 -18.946,65.29274 -23.7093,71.43329 -55.9707,138.6701 -99.4713,207.31126 -23.9727,37.82737 -58.1913,83.9284 -84.8394,114.29992 -3.4361,3.9163 -6.2474,7.4331 -6.2474,7.8152 0,1.3007 40.1846,27.1985 58.3132,37.5811 17.5147,10.0312 42.4933,22.952 58.4021,30.2102 l 7.7707,3.5453 10.7129,-12.5457 c 33.1466,-38.8173 56.7301,-74.6241 78.9572,-119.88039 32.0453,-65.24652 49.1897,-127.00566 56.464,-203.39936 2.8497,-29.92571 1.1266,-91.02718 -3.3732,-119.61536 -0.552,-3.50746 -0.8582,-6.52261 -0.6806,-6.70033 0.1778,-0.17773 4.3986,-1.03384 9.3797,-1.90247 15.6726,-2.73306 27.8706,-6.80609 43.0277,-14.3673 l 14.6796,-7.32309 1.181,6.7815 c 6.91,39.6803 9.2681,105.26618 5.3968,150.10381 -10.4368,120.88065 -53.1883,233.06244 -125.5764,329.51759 -18.4524,24.5874 -33.0784,41.2703 -58.4189,66.6349 -26.2343,26.2593 -41.8681,40.0238 -67.1835,59.1503 -81.9175,61.8912 -176.39363,102.4357 -278.32848,119.4446 -28.1011,4.6889 -68.04179,8.6021 -87.90596,8.6125 h -8.30852 l 3.23576,-5.2588 c 7.54941,-12.2693 16.03947,-37.4131 17.61416,-52.1653 0.3781,-3.542 0.91728,-7.9392 1.1982,-9.7716 l 0.51076,-3.3315 11.51927,-0.7391 c 74.82297,-4.8003 163.23472,-31.1345 230.28921,-68.5937 31.9212,-17.8325 67.02,-41.8726 89.1188,-61.0404 l 4.1314,-3.5835 -14.3282,-7.3915 c -30.7233,-15.8493 -62.1923,-34.6587 -88.87097,-53.1191 -7.34921,-5.0852 -14.00106,-9.638 -14.78214,-10.1173 -0.98201,-0.6027 -5.96459,3.3749 -16.15495,12.8967 -60.4885,56.5195 -118.33915,98.3272 -186.67616,134.9076 -16.26118,8.7045 -50.46934,25.1517 -55.87775,26.8657 -2.26683,0.7185 -2.36616,1.1419 -1.61002,6.8648 1.40081,10.6022 0.78459,29.1406 -1.27309,38.2996 -10.80743,48.1053 -51.45236,81.9857 -100.42574,83.7119 -6.78893,0.2393 -15.2006,-0.016 -18.69262,-0.5664 z M 765.32451,718.79345 c 26.73462,-27.39845 48.20029,-52.47588 71.5808,-83.62494 12.55023,-16.72024 37.59561,-53.46647 36.90931,-54.15281 -0.20222,-0.2022 -7.57773,-0.86709 -16.39002,-1.47753 -63.42432,-4.39355 -128.60119,-13.48244 -184.85779,-25.77837 -7.9964,-1.74776 -14.72346,-2.99318 -14.94904,-2.7676 -0.62969,0.62969 11.92672,33.30991 20.87075,54.31974 9.99846,23.4867 31.24644,67.01874 43.7457,89.62452 11.371,20.56522 24.03083,41.32388 25.20171,41.32388 0.4647,0 8.51456,-7.8601 17.88858,-17.46689 z M 919.51679,498.24552 c 34.30602,-71.05516 57.28241,-147.8984 67.79768,-226.74467 1.83499,-13.75931 4.87761,-47.53847 4.88706,-54.25648 l 0.0107,-4.34583 -15.2952,-8.1878 c -60.53369,-32.4048 -126.85498,-53.34194 -196.52499,-62.04146 -50.53605,-6.31032 -100.23916,-5.25653 -159.39577,3.37948 -7.37026,1.07594 -9.12479,1.70459 -9.88293,3.54101 -0.98323,2.38169 -3.27637,20.20503 -5.53494,43.02004 -1.89367,19.12897 -1.86655,103.98548 0.0401,125.58166 3.22222,36.49683 8.90148,75.10883 15.86629,107.87143 4.6642,21.94044 11.08771,47.44826 12.26543,48.70608 1.01754,1.08677 5.58387,2.32422 30.01761,8.13462 76.34509,18.15505 162.45911,29.60225 241.05906,32.0442 l 6.5325,0.20294 8.16195,-16.90522 z"
       id="path74" />
  </g>
</svg>
